# Created by FreeCAD <https://www.freecad.org>
v -19.363123 20.636824 0.000000
v -2.858833 30.716413 0.000000
v -2.858833 30.716413 5.000000
v -19.363123 20.636824 5.000000
v -16.198832 17.314318 0.000000
v -16.198832 17.314318 5.000000
v -21.069860 16.674015 0.000000
v -21.069860 16.674015 5.000000
v -25.861984 17.741087 0.000000
v -25.861984 17.741087 5.000000
v 0.000000 40.466385 0.000000
v 0.000000 40.466385 5.000000
v 23.196602 19.793013 0.000000
v 23.196602 19.793013 5.000000
v 18.468191 15.336914 0.000000
v 18.468191 15.336914 5.000000
v 17.956720 21.409050 0.000000
v 17.956720 21.409050 5.000000
v 2.843717 30.725534 0.000000
v 2.843717 30.725534 5.000000
v -0.000000 29.713123 0.000000
v 0.765811 29.778765 0.000000
v -0.000000 29.713123 5.000000
v 0.765811 29.778765 5.000000
v 1.509280 29.973774 0.000000
v 1.509280 29.973774 5.000000
v 2.208717 30.292463 0.000000
v 2.208717 30.292463 5.000000
v -2.218373 30.286985 0.000000
v -2.218373 30.286985 5.000000
v -1.514886 29.971226 0.000000
v -1.514886 29.971226 5.000000
v -0.768358 29.778111 0.000000
v -0.768358 29.778111 5.000000
v 1.092310 34.482353 0.000000
v 1.125000 34.213123 0.000000
v 1.125000 34.213123 5.000000
v 1.092310 34.482353 5.000000
v 0.996138 34.735935 0.000000
v 0.996138 34.735935 5.000000
v 0.842075 34.959137 0.000000
v 0.842075 34.959137 5.000000
v 0.639073 35.138981 5.000000
v 0.639073 35.138981 0.000000
v 0.398930 35.265015 0.000000
v 0.398930 35.265015 5.000000
v 0.135604 35.329922 0.000000
v 0.135604 35.329922 5.000000
v -0.135604 35.329922 0.000000
v -0.135604 35.329922 5.000000
v -0.398930 35.265015 5.000000
v -0.398930 35.265015 0.000000
v -0.639073 35.138981 0.000000
v -0.639073 35.138981 5.000000
v -0.842075 34.959137 0.000000
v -0.842075 34.959137 5.000000
v -0.996138 34.735935 0.000000
v -0.996138 34.735935 5.000000
v -1.092310 34.482353 5.000000
v -1.092310 34.482353 0.000000
v -1.125000 34.213123 0.000000
v -1.125000 34.213123 5.000000
v -1.092310 33.943893 0.000000
v -1.092310 33.943893 5.000000
v -0.996138 33.690308 0.000000
v -0.996138 33.690308 5.000000
v -0.842075 33.467110 0.000000
v -0.842075 33.467110 5.000000
v -0.639073 33.287266 0.000000
v -0.639073 33.287266 5.000000
v -0.398930 33.161228 5.000000
v -0.398930 33.161228 0.000000
v -0.135604 33.096325 0.000000
v -0.135604 33.096325 5.000000
v 0.135604 33.096325 0.000000
v 0.135604 33.096325 5.000000
v 0.398930 33.161228 0.000000
v 0.398930 33.161228 5.000000
v 0.639073 33.287266 0.000000
v 0.639073 33.287266 5.000000
v 0.842075 33.467110 5.000000
v 0.842075 33.467110 0.000000
v 0.996138 33.690308 5.000000
v 0.996138 33.690308 0.000000
v 1.092310 33.943893 5.000000
v 1.092310 33.943893 0.000000
vn 0.521210 -0.853428 0.000000
vn 0.521210 -0.853428 0.000000
vn 0.724138 0.689655 0.000000
vn 0.724138 0.689655 -0.000000
vn 0.130330 -0.991471 0.000000
vn 0.130330 -0.991471 0.000000
vn -0.217349 -0.976094 0.000000
vn -0.217349 -0.976094 0.000000
vn -0.660083 0.751192 0.000000
vn -0.660083 0.751192 0.000000
vn 0.665337 0.746543 0.000000
vn 0.665337 0.746543 -0.000000
vn 0.685840 -0.727752 0.000000
vn 0.685840 -0.727752 0.000000
vn -0.996471 -0.083935 0.000000
vn -0.996471 -0.083935 0.000000
vn -0.524758 -0.851251 0.000000
vn -0.524758 -0.851251 0.000000
vn 0.085402 -0.996347 0.000000
vn 0.085402 -0.996347 0.000000
vn 0.253714 -0.967279 0.000000
vn 0.253714 -0.967279 0.000000
vn 0.414626 -0.909992 0.000000
vn 0.414626 -0.909992 0.000000
vn 0.563441 -0.826157 0.000000
vn 0.563441 -0.826157 0.000000
vn -0.556902 -0.830578 0.000000
vn -0.556902 -0.830578 0.000000
vn -0.409491 -0.912314 0.000000
vn -0.409491 -0.912314 0.000000
vn -0.250441 -0.968132 0.000000
vn -0.250441 -0.968132 0.000000
vn -0.084278 -0.996442 0.000000
vn -0.084278 -0.996442 0.000000
vn -0.992709 -0.120537 0.000000
vn -0.992709 -0.120537 0.000000
vn -0.935016 -0.354607 0.000000
vn -0.935016 -0.354607 0.000000
vn -0.822987 -0.568061 0.000000
vn -0.663123 -0.748511 0.000000
vn -0.822987 -0.568061 0.000000
vn -0.663123 -0.748511 0.000000
vn -0.464716 -0.885460 0.000000
vn -0.464716 -0.885460 0.000000
vn -0.239326 -0.970939 0.000000
vn -0.239326 -0.970939 0.000000
vn 0.000000 -1.000000 0.000000
vn 0.239326 -0.970939 0.000000
vn 0.000000 -1.000000 0.000000
vn 0.239326 -0.970939 0.000000
vn 0.464716 -0.885460 0.000000
vn 0.464716 -0.885460 0.000000
vn 0.663123 -0.748511 0.000000
vn 0.663123 -0.748511 0.000000
vn 0.822987 -0.568061 0.000000
vn 0.935016 -0.354607 0.000000
vn 0.822987 -0.568061 0.000000
vn 0.935016 -0.354607 0.000000
vn 0.992709 -0.120537 0.000000
vn 0.992709 -0.120537 0.000000
vn 0.992709 0.120537 -0.000000
vn 0.992709 0.120537 0.000000
vn 0.935017 0.354602 -0.000000
vn 0.935017 0.354602 0.000000
vn 0.822982 0.568067 -0.000000
vn 0.822982 0.568067 0.000000
vn 0.663123 0.748511 -0.000000
vn 0.464727 0.885454 -0.000000
vn 0.663123 0.748511 0.000000
vn 0.464727 0.885454 -0.000000
vn 0.239312 0.970943 -0.000000
vn 0.239312 0.970943 0.000000
vn 0.000000 1.000000 -0.000000
vn 0.000000 1.000000 0.000000
vn -0.239312 0.970943 0.000000
vn -0.239312 0.970943 0.000000
vn -0.464727 0.885454 0.000000
vn -0.663123 0.748511 0.000000
vn -0.464727 0.885454 0.000000
vn -0.822982 0.568067 0.000000
vn -0.663123 0.748511 0.000000
vn -0.935017 0.354602 0.000000
vn -0.822982 0.568067 0.000000
vn -0.935017 0.354602 0.000000
vn -0.992709 0.120537 0.000000
vn -0.992709 0.120537 0.000000
vn 0.000000 0.000000 -1.000000
vn 0.000000 0.000000 -1.000000
vn 0.000000 0.000000 -1.000000
vn 0.000000 -0.000000 -1.000000
vn 0.000000 0.000000 -1.000000
vn 0.000000 0.000000 -1.000000
vn 0.000000 0.000000 -1.000000
vn 0.000000 -0.000000 -1.000000
vn 0.000000 0.000000 -1.000000
vn 0.000000 0.000000 -1.000000
vn 0.000000 -0.000000 -1.000000
vn 0.000000 0.000000 -1.000000
vn 0.000000 0.000000 -1.000000
vn 0.000000 0.000000 -1.000000
vn 0.000000 0.000000 -1.000000
vn 0.000000 0.000000 -1.000000
vn 0.000000 0.000000 -1.000000
vn 0.000000 0.000000 -1.000000
vn 0.000000 0.000000 -1.000000
vn 0.000000 0.000000 -1.000000
vn 0.000000 0.000000 -1.000000
vn 0.000000 0.000000 -1.000000
vn 0.000000 0.000000 -1.000000
vn 0.000000 0.000000 -1.000000
vn 0.000000 0.000000 -1.000000
vn 0.000000 0.000000 -1.000000
vn 0.000000 0.000000 -1.000000
vn 0.000000 0.000000 -1.000000
vn 0.000000 0.000000 -1.000000
vn 0.000000 0.000000 -1.000000
vn 0.000000 0.000000 -1.000000
vn 0.000000 0.000000 -1.000000
vn 0.000000 0.000000 -1.000000
vn 0.000000 0.000000 -1.000000
vn 0.000000 0.000000 -1.000000
vn 0.000000 0.000000 -1.000000
vn 0.000000 0.000000 -1.000000
vn 0.000000 0.000000 -1.000000
vn 0.000000 0.000000 -1.000000
vn 0.000000 0.000000 -1.000000
vn 0.000000 0.000000 -1.000000
vn 0.000000 0.000000 -1.000000
vn 0.000000 0.000000 -1.000000
vn 0.000000 0.000000 1.000000
vn 0.000000 0.000000 1.000000
vn 0.000000 0.000000 1.000000
vn 0.000000 0.000000 1.000000
vn 0.000000 0.000000 1.000000
vn 0.000000 0.000000 1.000000
vn 0.000000 0.000000 1.000000
vn 0.000000 0.000000 1.000000
vn 0.000000 0.000000 1.000000
vn 0.000000 0.000000 1.000000
vn 0.000000 0.000000 1.000000
vn 0.000000 0.000000 1.000000
vn 0.000000 0.000000 1.000000
vn 0.000000 0.000000 1.000000
vn 0.000000 0.000000 1.000000
vn 0.000000 0.000000 1.000000
vn 0.000000 0.000000 1.000000
vn 0.000000 0.000000 1.000000
vn 0.000000 0.000000 1.000000
vn 0.000000 0.000000 1.000000
vn 0.000000 0.000000 1.000000
vn 0.000000 0.000000 1.000000
vn 0.000000 0.000000 1.000000
vn 0.000000 0.000000 1.000000
vn 0.000000 0.000000 1.000000
vn 0.000000 0.000000 1.000000
vn 0.000000 0.000000 1.000000
vn 0.000000 0.000000 1.000000
vn 0.000000 0.000000 1.000000
vn 0.000000 0.000000 1.000000
vn 0.000000 0.000000 1.000000
vn 0.000000 0.000000 1.000000
vn 0.000000 0.000000 1.000000
vn 0.000000 0.000000 1.000000
vn 0.000000 0.000000 1.000000
vn 0.000000 0.000000 1.000000
vn 0.000000 0.000000 1.000000
vn 0.000000 0.000000 1.000000
vn 0.000000 0.000000 1.000000
vn 0.000000 0.000000 1.000000
vn 0.000000 0.000000 1.000000
vn 0.000000 0.000000 1.000000
vn 0.000000 0.000000 1.000000
f 1//1 2//1 3//1
f 1//2 3//2 4//2
f 5//3 1//3 4//3
f 5//4 4//4 6//4
f 7//5 5//5 8//5
f 8//6 5//6 6//6
f 9//7 7//7 8//7
f 9//8 8//8 10//8
f 11//9 9//9 12//9
f 12//10 9//10 10//10
f 13//11 11//11 12//11
f 13//12 12//12 14//12
f 15//13 13//13 14//13
f 15//14 14//14 16//14
f 17//15 15//15 18//15
f 18//16 15//16 16//16
f 19//17 17//17 20//17
f 20//18 17//18 18//18
f 21//19 22//19 23//19
f 23//20 22//20 24//20
f 24//21 25//21 26//21
f 22//22 25//22 24//22
f 26//23 27//23 28//23
f 25//24 27//24 26//24
f 28//25 19//25 20//25
f 27//26 19//26 28//26
f 2//27 29//27 3//27
f 3//28 29//28 30//28
f 30//29 31//29 32//29
f 29//30 31//30 30//30
f 32//31 33//31 34//31
f 31//32 33//32 32//32
f 34//33 21//33 23//33
f 33//34 21//34 34//34
f 35//35 36//35 37//35
f 35//36 37//36 38//36
f 39//37 38//37 40//37
f 39//38 35//38 38//38
f 41//39 40//39 42//39
f 41//40 42//40 43//40
f 41//41 39//41 40//41
f 44//42 41//42 43//42
f 45//43 43//43 46//43
f 45//44 44//44 43//44
f 47//45 46//45 48//45
f 47//46 45//46 46//46
f 49//47 48//47 50//47
f 49//48 50//48 51//48
f 49//49 47//49 48//49
f 52//50 49//50 51//50
f 53//51 51//51 54//51
f 53//52 52//52 51//52
f 55//53 54//53 56//53
f 55//54 53//54 54//54
f 57//55 56//55 58//55
f 57//56 58//56 59//56
f 57//57 55//57 56//57
f 60//58 57//58 59//58
f 61//59 60//59 59//59
f 61//60 59//60 62//60
f 63//61 62//61 64//61
f 63//62 61//62 62//62
f 65//63 64//63 66//63
f 65//64 63//64 64//64
f 67//65 66//65 68//65
f 67//66 65//66 66//66
f 69//67 68//67 70//67
f 69//68 70//68 71//68
f 69//69 67//69 68//69
f 72//70 69//70 71//70
f 73//71 71//71 74//71
f 73//72 72//72 71//72
f 75//73 74//73 76//73
f 75//74 73//74 74//74
f 77//75 76//75 78//75
f 77//76 75//76 76//76
f 79//77 78//77 80//77
f 79//78 80//78 81//78
f 79//79 77//79 78//79
f 82//80 81//80 83//80
f 82//81 79//81 81//81
f 84//82 83//82 85//82
f 84//83 82//83 83//83
f 86//84 84//84 85//84
f 36//85 85//85 37//85
f 36//86 86//86 85//86
f 9//87 1//87 7//87
f 7//88 1//88 5//88
f 2//89 69//89 29//89
f 67//90 69//90 2//90
f 2//91 65//91 67//91
f 29//92 72//92 31//92
f 31//93 72//93 33//93
f 69//94 72//94 29//94
f 2//95 63//95 65//95
f 33//96 73//96 21//96
f 72//97 73//97 33//97
f 2//98 61//98 63//98
f 21//99 75//99 22//99
f 73//100 75//100 21//100
f 2//101 60//101 61//101
f 22//102 77//102 25//102
f 25//103 77//103 27//103
f 75//104 77//104 22//104
f 27//105 79//105 19//105
f 77//106 79//106 27//106
f 79//107 82//107 19//107
f 82//108 84//108 19//108
f 84//109 86//109 19//109
f 86//110 36//110 19//110
f 36//111 35//111 19//111
f 35//112 17//112 19//112
f 1//113 11//113 2//113
f 39//114 11//114 35//114
f 41//115 11//115 39//115
f 44//116 11//116 41//116
f 45//117 11//117 44//117
f 47//118 11//118 45//118
f 49//119 11//119 47//119
f 35//120 11//120 17//120
f 52//121 11//121 49//121
f 53//122 11//122 52//122
f 55//123 11//123 53//123
f 57//124 11//124 55//124
f 60//125 11//125 57//125
f 9//126 11//126 1//126
f 2//127 11//127 60//127
f 17//128 13//128 15//128
f 11//129 13//129 17//129
f 4//130 10//130 8//130
f 4//131 8//131 6//131
f 70//132 3//132 30//132
f 70//133 68//133 3//133
f 66//134 3//134 68//134
f 71//135 30//135 32//135
f 71//136 32//136 34//136
f 71//137 70//137 30//137
f 64//138 3//138 66//138
f 74//139 34//139 23//139
f 74//140 71//140 34//140
f 62//141 3//141 64//141
f 76//142 23//142 24//142
f 76//143 74//143 23//143
f 59//144 3//144 62//144
f 78//145 24//145 26//145
f 78//146 26//146 28//146
f 78//147 76//147 24//147
f 80//148 28//148 20//148
f 80//149 78//149 28//149
f 81//150 80//150 20//150
f 83//151 81//151 20//151
f 85//152 83//152 20//152
f 37//153 85//153 20//153
f 38//154 37//154 20//154
f 18//155 38//155 20//155
f 12//156 4//156 3//156
f 12//157 40//157 38//157
f 12//158 42//158 40//158
f 12//159 43//159 42//159
f 12//160 46//160 43//160
f 12//161 48//161 46//161
f 12//162 50//162 48//162
f 12//163 38//163 18//163
f 12//164 51//164 50//164
f 12//165 54//165 51//165
f 12//166 56//166 54//166
f 12//167 58//167 56//167
f 12//168 59//168 58//168
f 12//169 10//169 4//169
f 12//170 3//170 59//170
f 14//171 18//171 16//171
f 14//172 12//172 18//172
